<mxfile host="app.diagrams.net" agent="Mozilla/5.0 (Windows NT 10.0; Win64; x64) AppleWebKit/537.36 (KHTML, like Gecko) Chrome/140.0.0.0 Safari/537.36" version="28.2.8">
  <diagram name="第 1 页" id="sxRwHEycodafsZCj6N3v">
    <mxGraphModel dx="851" dy="874" grid="1" gridSize="10" guides="1" tooltips="1" connect="1" arrows="1" fold="1" page="1" pageScale="1" pageWidth="827" pageHeight="1169" math="0" shadow="0">
      <root>
        <mxCell id="0" />
        <mxCell id="1" parent="0" />
        <mxCell id="iiNgS1w1h0vvlz9oPpsM-44" value="&lt;b&gt;逻辑验证&lt;/b&gt;" style="shape=umlActor;verticalLabelPosition=bottom;verticalAlign=top;html=1;fontSize=14;fontColor=#000000;fillColor=#E6D0DE;gradientColor=#FFFFFF;gradientDirection=east;strokeWidth=2;" vertex="1" parent="1">
          <mxGeometry x="1270" y="720" width="40" height="70" as="geometry" />
        </mxCell>
        <mxCell id="iiNgS1w1h0vvlz9oPpsM-45" value="&lt;span style=&quot;&quot;&gt;«Boundary»&lt;/span&gt;&lt;br style=&quot;&quot;&gt;&lt;span style=&quot;font-size: 14px;&quot;&gt;&lt;b&gt;调度&lt;/b&gt;&lt;/span&gt;" style="rounded=1;whiteSpace=wrap;html=1;verticalAlign=top;arcSize=9;fillColor=#f9f7ed;strokeColor=#36393d;align=center;" vertex="1" parent="1">
          <mxGeometry x="1310" y="834" width="470" height="221" as="geometry" />
        </mxCell>
        <mxCell id="iiNgS1w1h0vvlz9oPpsM-46" value="&lt;font style=&quot;font-size: 12px;&quot;&gt;«Interface»&lt;/font&gt;&lt;br style=&quot;font-size: 14px;&quot;&gt;&lt;b&gt;节点分区表&lt;/b&gt;" style="html=1;dropTarget=0;fontSize=14;fillColor=#FFCCFF;strokeColor=#36393d;gradientColor=#FFFFFF;gradientDirection=east;" vertex="1" parent="1">
          <mxGeometry x="1320" y="1140" width="110" height="50" as="geometry" />
        </mxCell>
        <mxCell id="iiNgS1w1h0vvlz9oPpsM-47" value="" style="shape=module;jettyWidth=8;jettyHeight=4;fontSize=14;fillColor=#ffcccc;strokeColor=#36393d;gradientColor=#FFFFFF;gradientDirection=east;" vertex="1" parent="iiNgS1w1h0vvlz9oPpsM-46">
          <mxGeometry x="1" width="20" height="20" relative="1" as="geometry">
            <mxPoint x="-27" y="7" as="offset" />
          </mxGeometry>
        </mxCell>
        <mxCell id="iiNgS1w1h0vvlz9oPpsM-48" style="edgeStyle=none;rounded=1;orthogonalLoop=1;jettySize=auto;html=1;strokeColor=#000000;fontSize=14;fontColor=#000000;endArrow=open;endFill=0;elbow=vertical;" edge="1" parent="1" source="iiNgS1w1h0vvlz9oPpsM-49" target="iiNgS1w1h0vvlz9oPpsM-85">
          <mxGeometry relative="1" as="geometry" />
        </mxCell>
        <mxCell id="iiNgS1w1h0vvlz9oPpsM-49" value="&lt;font style=&quot;font-size: 12px;&quot;&gt;«Module»&lt;/font&gt;&lt;br style=&quot;font-size: 14px;&quot;&gt;&lt;b&gt;网表分割&lt;/b&gt;" style="html=1;dropTarget=0;fontSize=14;fillColor=#ffcccc;strokeColor=#36393d;gradientColor=#FFFFFF;gradientDirection=east;" vertex="1" parent="1">
          <mxGeometry x="1150" y="920.5" width="110" height="50" as="geometry" />
        </mxCell>
        <mxCell id="iiNgS1w1h0vvlz9oPpsM-50" value="" style="shape=module;jettyWidth=8;jettyHeight=4;fontSize=14;fillColor=#ffcccc;strokeColor=#36393d;gradientColor=#FFFFFF;gradientDirection=east;" vertex="1" parent="iiNgS1w1h0vvlz9oPpsM-49">
          <mxGeometry x="1" width="20" height="20" relative="1" as="geometry">
            <mxPoint x="-27" y="7" as="offset" />
          </mxGeometry>
        </mxCell>
        <mxCell id="iiNgS1w1h0vvlz9oPpsM-51" value="&amp;lt;&amp;lt;Realization&amp;gt;&amp;gt;" style="endArrow=block;dashed=1;endFill=0;endSize=12;html=1;rounded=1;fontSize=12;strokeColor=#0000FF;fontColor=#0000FF;" edge="1" parent="1" source="iiNgS1w1h0vvlz9oPpsM-49" target="iiNgS1w1h0vvlz9oPpsM-46">
          <mxGeometry width="160" relative="1" as="geometry">
            <mxPoint x="1096" y="1600" as="sourcePoint" />
            <mxPoint x="2071" y="1080" as="targetPoint" />
          </mxGeometry>
        </mxCell>
        <mxCell id="iiNgS1w1h0vvlz9oPpsM-52" value="&lt;font style=&quot;font-size: 12px;&quot;&gt;«SubModule»&lt;/font&gt;&lt;br style=&quot;font-size: 14px;&quot;&gt;&lt;b&gt;调度框架&lt;/b&gt;" style="html=1;dropTarget=0;fontSize=14;fillColor=#ffcccc;strokeColor=#36393d;gradientColor=#FFFFFF;gradientDirection=east;" vertex="1" parent="1">
          <mxGeometry x="1380" y="975" width="110" height="50" as="geometry" />
        </mxCell>
        <mxCell id="iiNgS1w1h0vvlz9oPpsM-53" value="" style="shape=module;jettyWidth=8;jettyHeight=4;fontSize=14;fillColor=#ffcccc;strokeColor=#36393d;gradientColor=#FFFFFF;gradientDirection=east;" vertex="1" parent="iiNgS1w1h0vvlz9oPpsM-52">
          <mxGeometry x="1" width="20" height="20" relative="1" as="geometry">
            <mxPoint x="-27" y="7" as="offset" />
          </mxGeometry>
        </mxCell>
        <mxCell id="iiNgS1w1h0vvlz9oPpsM-54" value="&lt;font style=&quot;font-size: 12px;&quot;&gt;«SubModule»&lt;/font&gt;&lt;br style=&quot;font-size: 14px;&quot;&gt;&lt;b&gt;模块调度&lt;/b&gt;" style="html=1;dropTarget=0;fontSize=14;fillColor=#ffcccc;strokeColor=#36393d;gradientColor=#FFFFFF;gradientDirection=east;" vertex="1" parent="1">
          <mxGeometry x="1620" y="975" width="110" height="50" as="geometry" />
        </mxCell>
        <mxCell id="iiNgS1w1h0vvlz9oPpsM-55" value="" style="shape=module;jettyWidth=8;jettyHeight=4;fontSize=14;fillColor=#ffcccc;strokeColor=#36393d;gradientColor=#FFFFFF;gradientDirection=east;" vertex="1" parent="iiNgS1w1h0vvlz9oPpsM-54">
          <mxGeometry x="1" width="20" height="20" relative="1" as="geometry">
            <mxPoint x="-27" y="7" as="offset" />
          </mxGeometry>
        </mxCell>
        <mxCell id="iiNgS1w1h0vvlz9oPpsM-56" value="&amp;lt;&amp;lt;Usage&amp;gt;&amp;gt;" style="rounded=1;orthogonalLoop=1;jettySize=auto;html=1;dashed=1;fontSize=12;endArrow=open;endFill=0;elbow=vertical;" edge="1" parent="1" source="iiNgS1w1h0vvlz9oPpsM-52" target="iiNgS1w1h0vvlz9oPpsM-46">
          <mxGeometry relative="1" as="geometry">
            <mxPoint x="1380" y="990" as="sourcePoint" />
            <mxPoint x="1430" y="1130" as="targetPoint" />
          </mxGeometry>
        </mxCell>
        <mxCell id="iiNgS1w1h0vvlz9oPpsM-57" value="&amp;lt;&amp;lt;Usage&amp;gt;&amp;gt;" style="rounded=1;orthogonalLoop=1;jettySize=auto;html=1;dashed=1;fontSize=12;endArrow=open;endFill=0;elbow=vertical;" edge="1" parent="1" source="iiNgS1w1h0vvlz9oPpsM-52" target="iiNgS1w1h0vvlz9oPpsM-54">
          <mxGeometry relative="1" as="geometry">
            <mxPoint x="1660" y="987.5000000000001" as="sourcePoint" />
            <mxPoint x="1595" y="955.0000000000001" as="targetPoint" />
          </mxGeometry>
        </mxCell>
        <mxCell id="iiNgS1w1h0vvlz9oPpsM-58" value="&lt;font style=&quot;font-size: 12px;&quot;&gt;«Module»&lt;/font&gt;&lt;br style=&quot;font-size: 14px;&quot;&gt;&lt;b&gt;线程池&lt;/b&gt;" style="html=1;dropTarget=0;fontSize=14;fillColor=#E6D0DE;strokeColor=#36393d;gradientColor=#FFFFFF;gradientDirection=east;" vertex="1" parent="1">
          <mxGeometry x="1670" y="1249.5" width="110" height="50" as="geometry" />
        </mxCell>
        <mxCell id="iiNgS1w1h0vvlz9oPpsM-59" value="" style="shape=module;jettyWidth=8;jettyHeight=4;fontSize=14;fillColor=#E6D0DE;strokeColor=#36393d;gradientColor=#FFFFFF;gradientDirection=east;" vertex="1" parent="iiNgS1w1h0vvlz9oPpsM-58">
          <mxGeometry x="1" width="20" height="20" relative="1" as="geometry">
            <mxPoint x="-27" y="7" as="offset" />
          </mxGeometry>
        </mxCell>
        <mxCell id="iiNgS1w1h0vvlz9oPpsM-60" value="&amp;lt;&amp;lt;Usage&amp;gt;&amp;gt;" style="rounded=1;orthogonalLoop=1;jettySize=auto;html=1;dashed=1;fontSize=12;endArrow=open;endFill=0;elbow=vertical;" edge="1" parent="1" source="iiNgS1w1h0vvlz9oPpsM-52" target="iiNgS1w1h0vvlz9oPpsM-61">
          <mxGeometry relative="1" as="geometry">
            <mxPoint x="1763.4" y="930" as="sourcePoint" />
            <mxPoint x="1701" y="870" as="targetPoint" />
          </mxGeometry>
        </mxCell>
        <mxCell id="iiNgS1w1h0vvlz9oPpsM-61" value="&lt;font style=&quot;font-size: 12px;&quot;&gt;«Interface»&lt;/font&gt;&lt;br style=&quot;font-size: 14px;&quot;&gt;&lt;b&gt;并行任务执行&lt;/b&gt;" style="html=1;dropTarget=0;fontSize=14;fillColor=#FFCCFF;strokeColor=#36393d;gradientColor=#FFFFFF;gradientDirection=east;" vertex="1" parent="1">
          <mxGeometry x="1750" y="1140" width="110" height="50" as="geometry" />
        </mxCell>
        <mxCell id="iiNgS1w1h0vvlz9oPpsM-62" value="" style="shape=module;jettyWidth=8;jettyHeight=4;fontSize=14;fillColor=#ffcccc;strokeColor=#36393d;gradientColor=#FFFFFF;gradientDirection=east;" vertex="1" parent="iiNgS1w1h0vvlz9oPpsM-61">
          <mxGeometry x="1" width="20" height="20" relative="1" as="geometry">
            <mxPoint x="-27" y="7" as="offset" />
          </mxGeometry>
        </mxCell>
        <mxCell id="iiNgS1w1h0vvlz9oPpsM-63" value="&amp;lt;&amp;lt;Realization&amp;gt;&amp;gt;" style="endArrow=block;dashed=1;endFill=0;endSize=12;html=1;rounded=1;fontSize=12;strokeColor=#0000FF;fontColor=#0000FF;" edge="1" parent="1" source="iiNgS1w1h0vvlz9oPpsM-58" target="iiNgS1w1h0vvlz9oPpsM-61">
          <mxGeometry width="160" relative="1" as="geometry">
            <mxPoint x="2145" y="1164.5" as="sourcePoint" />
            <mxPoint x="2145" y="1114.5" as="targetPoint" />
          </mxGeometry>
        </mxCell>
        <mxCell id="iiNgS1w1h0vvlz9oPpsM-64" value="&lt;font style=&quot;font-size: 12px;&quot;&gt;«Module»&lt;/font&gt;&lt;br style=&quot;font-size: 14px;&quot;&gt;&lt;b style=&quot;font-size: 14px;&quot;&gt;编译选项&lt;/b&gt;" style="html=1;dropTarget=0;fontSize=14;fillColor=#E6D0DE;strokeColor=#36393d;gradientColor=#FFFFFF;gradientDirection=east;" vertex="1" parent="1">
          <mxGeometry x="1470" y="1249.5" width="110" height="50" as="geometry" />
        </mxCell>
        <mxCell id="iiNgS1w1h0vvlz9oPpsM-65" value="" style="shape=module;jettyWidth=8;jettyHeight=4;fontSize=14;fillColor=#E6D0DE;strokeColor=#36393d;gradientColor=#FFFFFF;gradientDirection=east;" vertex="1" parent="iiNgS1w1h0vvlz9oPpsM-64">
          <mxGeometry x="1" width="20" height="20" relative="1" as="geometry">
            <mxPoint x="-27" y="7" as="offset" />
          </mxGeometry>
        </mxCell>
        <mxCell id="iiNgS1w1h0vvlz9oPpsM-66" value="&amp;lt;&amp;lt;Usage&amp;gt;&amp;gt;" style="rounded=1;orthogonalLoop=1;jettySize=auto;html=1;dashed=1;fontSize=12;endArrow=open;endFill=0;elbow=vertical;" edge="1" parent="1" source="iiNgS1w1h0vvlz9oPpsM-52" target="iiNgS1w1h0vvlz9oPpsM-67">
          <mxGeometry relative="1" as="geometry">
            <mxPoint x="1775.6122448979595" y="903" as="sourcePoint" />
            <mxPoint x="1718.3673469387754" y="870" as="targetPoint" />
          </mxGeometry>
        </mxCell>
        <mxCell id="iiNgS1w1h0vvlz9oPpsM-67" value="&lt;font style=&quot;font-size: 12px;&quot;&gt;«Interface»&lt;/font&gt;&lt;br style=&quot;font-size: 14px;&quot;&gt;&lt;b&gt;获取编译选项&lt;/b&gt;" style="html=1;dropTarget=0;fontSize=14;fillColor=#FFCCFF;strokeColor=#36393d;gradientColor=#FFFFFF;gradientDirection=east;" vertex="1" parent="1">
          <mxGeometry x="1470" y="1140" width="110" height="50" as="geometry" />
        </mxCell>
        <mxCell id="iiNgS1w1h0vvlz9oPpsM-68" value="" style="shape=module;jettyWidth=8;jettyHeight=4;fontSize=14;fillColor=#ffcccc;strokeColor=#36393d;gradientColor=#FFFFFF;gradientDirection=east;" vertex="1" parent="iiNgS1w1h0vvlz9oPpsM-67">
          <mxGeometry x="1" width="20" height="20" relative="1" as="geometry">
            <mxPoint x="-27" y="7" as="offset" />
          </mxGeometry>
        </mxCell>
        <mxCell id="iiNgS1w1h0vvlz9oPpsM-69" value="&amp;lt;&amp;lt;Realization&amp;gt;&amp;gt;" style="endArrow=block;dashed=1;endFill=0;endSize=12;html=1;rounded=1;fontSize=12;strokeColor=#0000FF;fontColor=#0000FF;" edge="1" parent="1" source="iiNgS1w1h0vvlz9oPpsM-64" target="iiNgS1w1h0vvlz9oPpsM-67">
          <mxGeometry width="160" relative="1" as="geometry">
            <mxPoint x="1715" y="955" as="sourcePoint" />
            <mxPoint x="1715" y="1020" as="targetPoint" />
          </mxGeometry>
        </mxCell>
        <mxCell id="iiNgS1w1h0vvlz9oPpsM-70" value="&lt;font style=&quot;font-size: 12px;&quot;&gt;«Interface»&lt;/font&gt;&lt;br style=&quot;font-size: 14px;&quot;&gt;&lt;b&gt;设置线程数&lt;/b&gt;" style="html=1;dropTarget=0;fontSize=14;fillColor=#FFCCFF;strokeColor=#36393d;gradientColor=#FFFFFF;gradientDirection=east;" vertex="1" parent="1">
          <mxGeometry x="1610" y="1140" width="110" height="50" as="geometry" />
        </mxCell>
        <mxCell id="iiNgS1w1h0vvlz9oPpsM-71" value="" style="shape=module;jettyWidth=8;jettyHeight=4;fontSize=14;fillColor=#ffcccc;strokeColor=#36393d;gradientColor=#FFFFFF;gradientDirection=east;" vertex="1" parent="iiNgS1w1h0vvlz9oPpsM-70">
          <mxGeometry x="1" width="20" height="20" relative="1" as="geometry">
            <mxPoint x="-27" y="7" as="offset" />
          </mxGeometry>
        </mxCell>
        <mxCell id="iiNgS1w1h0vvlz9oPpsM-72" value="&amp;lt;&amp;lt;Realization&amp;gt;&amp;gt;" style="endArrow=block;dashed=1;endFill=0;endSize=12;html=1;rounded=1;fontSize=12;strokeColor=#0000FF;fontColor=#0000FF;" edge="1" parent="1" source="iiNgS1w1h0vvlz9oPpsM-58" target="iiNgS1w1h0vvlz9oPpsM-70">
          <mxGeometry width="160" relative="1" as="geometry">
            <mxPoint x="1778.6986301369861" y="1259.5" as="sourcePoint" />
            <mxPoint x="1811.3013698630139" y="1200" as="targetPoint" />
          </mxGeometry>
        </mxCell>
        <mxCell id="iiNgS1w1h0vvlz9oPpsM-73" value="&amp;lt;&amp;lt;Usage&amp;gt;&amp;gt;" style="rounded=1;orthogonalLoop=1;jettySize=auto;html=1;dashed=1;fontSize=12;endArrow=open;endFill=0;elbow=vertical;" edge="1" parent="1" source="iiNgS1w1h0vvlz9oPpsM-52" target="iiNgS1w1h0vvlz9oPpsM-70">
          <mxGeometry relative="1" as="geometry">
            <mxPoint x="1779.7422680412374" y="994" as="sourcePoint" />
            <mxPoint x="1889.5360824742265" y="1171.5" as="targetPoint" />
          </mxGeometry>
        </mxCell>
        <mxCell id="iiNgS1w1h0vvlz9oPpsM-74" value="&lt;font style=&quot;font-size: 12px;&quot;&gt;«Interface»&lt;/font&gt;&lt;br style=&quot;font-size: 14px;&quot;&gt;&lt;b&gt;执行调度&lt;/b&gt;" style="html=1;dropTarget=0;fontSize=14;fillColor=#FFCCFF;strokeColor=#36393d;gradientColor=#FFFFFF;gradientDirection=east;" vertex="1" parent="1">
          <mxGeometry x="1350" y="875" width="110" height="50" as="geometry" />
        </mxCell>
        <mxCell id="iiNgS1w1h0vvlz9oPpsM-75" value="" style="shape=module;jettyWidth=8;jettyHeight=4;fontSize=14;fillColor=#ffcccc;strokeColor=#36393d;gradientColor=#FFFFFF;gradientDirection=east;" vertex="1" parent="iiNgS1w1h0vvlz9oPpsM-74">
          <mxGeometry x="1" width="20" height="20" relative="1" as="geometry">
            <mxPoint x="-27" y="7" as="offset" />
          </mxGeometry>
        </mxCell>
        <mxCell id="iiNgS1w1h0vvlz9oPpsM-76" value="&lt;font style=&quot;font-size: 12px;&quot;&gt;«Interface»&lt;/font&gt;&lt;br style=&quot;font-size: 14px;&quot;&gt;&lt;b&gt;查询调度进度&lt;/b&gt;" style="html=1;dropTarget=0;fontSize=14;fillColor=#FFCCFF;strokeColor=#36393d;gradientColor=#FFFFFF;gradientDirection=east;" vertex="1" parent="1">
          <mxGeometry x="1500" y="875" width="110" height="50" as="geometry" />
        </mxCell>
        <mxCell id="iiNgS1w1h0vvlz9oPpsM-77" value="" style="shape=module;jettyWidth=8;jettyHeight=4;fontSize=14;fillColor=#ffcccc;strokeColor=#36393d;gradientColor=#FFFFFF;gradientDirection=east;" vertex="1" parent="iiNgS1w1h0vvlz9oPpsM-76">
          <mxGeometry x="1" width="20" height="20" relative="1" as="geometry">
            <mxPoint x="-27" y="7" as="offset" />
          </mxGeometry>
        </mxCell>
        <mxCell id="iiNgS1w1h0vvlz9oPpsM-78" value="&amp;lt;&amp;lt;Realization&amp;gt;&amp;gt;" style="endArrow=block;dashed=1;endFill=0;endSize=12;html=1;rounded=1;fontSize=12;strokeColor=#0000FF;fontColor=#0000FF;" edge="1" parent="1" source="iiNgS1w1h0vvlz9oPpsM-52" target="iiNgS1w1h0vvlz9oPpsM-76">
          <mxGeometry width="160" relative="1" as="geometry">
            <mxPoint x="1641.8907563025214" y="989" as="sourcePoint" />
            <mxPoint x="1678.1932773109247" y="935" as="targetPoint" />
          </mxGeometry>
        </mxCell>
        <mxCell id="iiNgS1w1h0vvlz9oPpsM-79" value="&amp;lt;&amp;lt;Realization&amp;gt;&amp;gt;" style="endArrow=block;dashed=1;endFill=0;endSize=12;html=1;rounded=1;fontSize=12;strokeColor=#0000FF;fontColor=#0000FF;" edge="1" parent="1" source="iiNgS1w1h0vvlz9oPpsM-52" target="iiNgS1w1h0vvlz9oPpsM-74">
          <mxGeometry width="160" relative="1" as="geometry">
            <mxPoint x="1630.311004784689" y="989" as="sourcePoint" />
            <mxPoint x="1685.430622009569" y="845" as="targetPoint" />
          </mxGeometry>
        </mxCell>
        <mxCell id="iiNgS1w1h0vvlz9oPpsM-80" style="edgeStyle=none;rounded=1;orthogonalLoop=1;jettySize=auto;html=1;strokeColor=#000000;fontSize=14;fontColor=#000000;endArrow=open;endFill=0;elbow=vertical;" edge="1" parent="1" source="iiNgS1w1h0vvlz9oPpsM-82" target="iiNgS1w1h0vvlz9oPpsM-45">
          <mxGeometry relative="1" as="geometry" />
        </mxCell>
        <mxCell id="iiNgS1w1h0vvlz9oPpsM-81" style="edgeStyle=none;rounded=1;orthogonalLoop=1;jettySize=auto;html=1;strokeColor=#000000;fontSize=14;fontColor=#000000;endArrow=open;endFill=0;elbow=vertical;" edge="1" parent="1" source="iiNgS1w1h0vvlz9oPpsM-82" target="iiNgS1w1h0vvlz9oPpsM-49">
          <mxGeometry relative="1" as="geometry" />
        </mxCell>
        <mxCell id="iiNgS1w1h0vvlz9oPpsM-82" value="&lt;font style=&quot;font-size: 12px;&quot;&gt;«System»&lt;/font&gt;&lt;br style=&quot;font-size: 14px;&quot;&gt;&lt;b&gt;EmuCompiler&lt;/b&gt;" style="html=1;dropTarget=0;fontSize=14;fillColor=#FFE599;strokeColor=#36393d;gradientColor=#FFFFFF;gradientDirection=east;" vertex="1" parent="1">
          <mxGeometry x="1490" y="730" width="110" height="50" as="geometry" />
        </mxCell>
        <mxCell id="iiNgS1w1h0vvlz9oPpsM-83" value="" style="shape=module;jettyWidth=8;jettyHeight=4;fontSize=14;fillColor=#ffcccc;strokeColor=#36393d;gradientColor=#FFFFFF;gradientDirection=east;" vertex="1" parent="iiNgS1w1h0vvlz9oPpsM-82">
          <mxGeometry x="1" width="20" height="20" relative="1" as="geometry">
            <mxPoint x="-27" y="7" as="offset" />
          </mxGeometry>
        </mxCell>
        <mxCell id="iiNgS1w1h0vvlz9oPpsM-84" value="&amp;lt;&amp;lt;Usage&amp;gt;&amp;gt;" style="rounded=1;orthogonalLoop=1;jettySize=auto;html=1;dashed=1;fontSize=12;endArrow=open;endFill=0;elbow=vertical;" edge="1" parent="1" source="iiNgS1w1h0vvlz9oPpsM-44" target="iiNgS1w1h0vvlz9oPpsM-82">
          <mxGeometry relative="1" as="geometry">
            <mxPoint x="1520" y="1033.804347826087" as="sourcePoint" />
            <mxPoint x="1420" y="1005.5434782608696" as="targetPoint" />
          </mxGeometry>
        </mxCell>
        <mxCell id="iiNgS1w1h0vvlz9oPpsM-85" value="&lt;font style=&quot;font-size: 12px;&quot;&gt;«SubModule»&lt;/font&gt;&lt;br style=&quot;font-size: 14px;&quot;&gt;&lt;b&gt;分区&lt;/b&gt;" style="html=1;dropTarget=0;fontSize=14;fillColor=#ffcccc;strokeColor=#36393d;gradientColor=#FFFFFF;gradientDirection=east;" vertex="1" parent="1">
          <mxGeometry x="1150" y="1140" width="110" height="50" as="geometry" />
        </mxCell>
        <mxCell id="iiNgS1w1h0vvlz9oPpsM-86" value="" style="shape=module;jettyWidth=8;jettyHeight=4;fontSize=14;fillColor=#ffcccc;strokeColor=#36393d;gradientColor=#FFFFFF;gradientDirection=east;" vertex="1" parent="iiNgS1w1h0vvlz9oPpsM-85">
          <mxGeometry x="1" width="20" height="20" relative="1" as="geometry">
            <mxPoint x="-27" y="7" as="offset" />
          </mxGeometry>
        </mxCell>
        <mxCell id="iiNgS1w1h0vvlz9oPpsM-87" value="1" style="endArrow=open;html=1;endSize=12;startArrow=diamondThin;startSize=14;startFill=0;edgeStyle=orthogonalEdgeStyle;align=left;verticalAlign=bottom;rounded=1;strokeColor=#000000;fontSize=14;fontColor=#000000;elbow=vertical;" edge="1" parent="1" source="iiNgS1w1h0vvlz9oPpsM-46" target="iiNgS1w1h0vvlz9oPpsM-85">
          <mxGeometry x="-1" y="3" relative="1" as="geometry">
            <mxPoint x="1420" y="1540" as="sourcePoint" />
            <mxPoint x="1580" y="1540" as="targetPoint" />
          </mxGeometry>
        </mxCell>
        <mxCell id="iiNgS1w1h0vvlz9oPpsM-88" value="&lt;font style=&quot;font-size: 12px;&quot;&gt;«Interface»&lt;/font&gt;&lt;br style=&quot;font-size: 14px;&quot;&gt;&lt;b&gt;调度结果&lt;/b&gt;" style="html=1;dropTarget=0;fontSize=14;fillColor=#FFCCFF;strokeColor=#36393d;gradientColor=#FFFFFF;gradientDirection=east;" vertex="1" parent="1">
          <mxGeometry x="1650" y="875" width="110" height="50" as="geometry" />
        </mxCell>
        <mxCell id="iiNgS1w1h0vvlz9oPpsM-89" value="" style="shape=module;jettyWidth=8;jettyHeight=4;fontSize=14;fillColor=#ffcccc;strokeColor=#36393d;gradientColor=#FFFFFF;gradientDirection=east;" vertex="1" parent="iiNgS1w1h0vvlz9oPpsM-88">
          <mxGeometry x="1" width="20" height="20" relative="1" as="geometry">
            <mxPoint x="-27" y="7" as="offset" />
          </mxGeometry>
        </mxCell>
        <mxCell id="iiNgS1w1h0vvlz9oPpsM-90" value="&amp;lt;&amp;lt;Realization&amp;gt;&amp;gt;" style="endArrow=block;dashed=1;endFill=0;endSize=12;html=1;rounded=1;fontSize=12;strokeColor=#0000FF;fontColor=#0000FF;" edge="1" parent="1" source="iiNgS1w1h0vvlz9oPpsM-52" target="iiNgS1w1h0vvlz9oPpsM-88">
          <mxGeometry width="160" relative="1" as="geometry">
            <mxPoint x="1475" y="985" as="sourcePoint" />
            <mxPoint x="1535" y="935" as="targetPoint" />
          </mxGeometry>
        </mxCell>
        <mxCell id="iiNgS1w1h0vvlz9oPpsM-91" value="&lt;font style=&quot;font-size: 12px;&quot;&gt;«Module»&lt;/font&gt;&lt;br style=&quot;font-size: 14px;&quot;&gt;&lt;b&gt;指令生成&lt;/b&gt;" style="html=1;dropTarget=0;fontSize=14;fillColor=#ffcccc;strokeColor=#36393d;gradientColor=#FFFFFF;gradientDirection=east;" vertex="1" parent="1">
          <mxGeometry x="1750" y="760" width="110" height="50" as="geometry" />
        </mxCell>
        <mxCell id="iiNgS1w1h0vvlz9oPpsM-92" value="" style="shape=module;jettyWidth=8;jettyHeight=4;fontSize=14;fillColor=#ffcccc;strokeColor=#36393d;gradientColor=#FFFFFF;gradientDirection=east;" vertex="1" parent="iiNgS1w1h0vvlz9oPpsM-91">
          <mxGeometry x="1" width="20" height="20" relative="1" as="geometry">
            <mxPoint x="-27" y="7" as="offset" />
          </mxGeometry>
        </mxCell>
        <mxCell id="iiNgS1w1h0vvlz9oPpsM-93" value="&amp;lt;&amp;lt;Usage&amp;gt;&amp;gt;" style="rounded=1;orthogonalLoop=1;jettySize=auto;html=1;dashed=1;fontSize=12;endArrow=open;endFill=0;elbow=vertical;" edge="1" parent="1" source="iiNgS1w1h0vvlz9oPpsM-91" target="iiNgS1w1h0vvlz9oPpsM-88">
          <mxGeometry relative="1" as="geometry">
            <mxPoint x="1403.4775086505192" y="1035" as="sourcePoint" />
            <mxPoint x="1246.5224913494812" y="1129.5" as="targetPoint" />
          </mxGeometry>
        </mxCell>
        <mxCell id="iiNgS1w1h0vvlz9oPpsM-94" style="edgeStyle=none;rounded=1;orthogonalLoop=1;jettySize=auto;html=1;strokeColor=#000000;fontSize=14;fontColor=#000000;endArrow=open;endFill=0;elbow=vertical;" edge="1" parent="1" source="iiNgS1w1h0vvlz9oPpsM-82" target="iiNgS1w1h0vvlz9oPpsM-91">
          <mxGeometry relative="1" as="geometry">
            <mxPoint x="1563.6807387862796" y="790" as="sourcePoint" />
            <mxPoint x="1560.831134564644" y="844" as="targetPoint" />
          </mxGeometry>
        </mxCell>
      </root>
    </mxGraphModel>
  </diagram>
</mxfile>
